<svg xmlns="http://www.w3.org/2000/svg" width="64" height="64" viewBox="0 0 64 64"><defs><linearGradient id="a" x1="0%" x2="100.003%" y1="50%" y2="50%"><stop offset="0%" stop-color="#E6EDF2" stop-opacity=".3"/><stop offset="100%" stop-color="#E6EDF2"/></linearGradient><linearGradient id="b" x1="100%" x2=".001%" y1="50%" y2="50%"><stop offset="0%" stop-color="#E6EDF2" stop-opacity=".3"/><stop offset="100%" stop-color="#E6EDF2"/></linearGradient></defs><g fill="none" fill-rule="evenodd"><path d="M0 64h64V0H0z"/><path fill="url(#a)" d="M26.5 6.999V41a7 7 0 0 0 14 0c0-.562-.074-1.106-.199-1.63 4.844-.145 8.728-4.108 8.728-8.987a8.995 8.995 0 0 0-4.689-7.901 7.965 7.965 0 0 0 2.247-5.549 8 8 0 0 0-6.405-7.84A7 7 0 1 0 26.5 6.999" transform="translate(7 8)"/><path fill="url(#b)" d="M9.5 6.999c0 .73.111 1.432.318 2.094a8 8 0 0 0-6.405 7.84c0 2.156.859 4.11 2.246 5.549A9 9 0 0 0 .97 30.383c0 4.879 3.885 8.842 8.729 8.987A7.008 7.008 0 0 0 9.5 41a7 7 0 1 0 14 0V6.999a7 7 0 0 0-14 0" transform="translate(7 8)"/><path stroke="#4DB1CF" stroke-width="2" d="M45.587 24.932h-5.46l-2.29 3.9H34.5m12.53 9.551h-5.281l-2.194-3.973H34.5"/><path fill="#4DB1CF" d="M35.5 21.414l5.708-5.707-1.415-1.414-6.293 6.293v22.828l6.293 6.293 1.415-1.414-5.708-5.707z"/><path fill="#FFF" d="M47.03 40.883a2.5 2.5 0 1 0 0-5 2.5 2.5 0 0 0 0 5"/><path stroke="#4DB1CF" stroke-width="2" d="M47.03 40.883a2.5 2.5 0 1 0 0-5 2.5 2.5 0 0 0 0 5z"/><path fill="#FFF" d="M45.587 27.432a2.5 2.5 0 1 0 0-5 2.5 2.5 0 0 0 0 5"/><path stroke="#4DB1CF" stroke-width="2" d="M45.587 27.432a2.5 2.5 0 1 0 0-5 2.5 2.5 0 0 0 0 5z"/><path fill="#FFF" d="M38 15a2.5 2.5 0 1 0 5.002-.002A2.5 2.5 0 0 0 38 15"/><path stroke="#4DB1CF" stroke-width="2" d="M38 15a2.5 2.5 0 1 0 5.002-.002A2.5 2.5 0 0 0 38 15z"/><path fill="#FFF" d="M40.5 51.5a2.5 2.5 0 1 0 0-5 2.5 2.5 0 0 0 0 5"/><path stroke="#4DB1CF" stroke-width="2" d="M40.5 51.5a2.5 2.5 0 1 0 0-5 2.5 2.5 0 0 0 0 5zM18.413 24.932h5.46l2.29 3.9h3.336M16.97 38.383h5.282l2.194-3.973H29.5"/><path fill="#4DB1CF" d="M28.5 21.414l-5.707-5.707 1.414-1.414 6.293 6.293v22.828l-6.293 6.293-1.414-1.414 5.707-5.707z"/><path fill="#FFF" d="M16.97 40.883a2.5 2.5 0 1 1 0-5 2.5 2.5 0 0 1 0 5"/><path stroke="#4DB1CF" stroke-width="2" d="M16.97 40.883a2.5 2.5 0 1 1 0-5 2.5 2.5 0 0 1 0 5z"/><path fill="#FFF" d="M18.413 27.432a2.5 2.5 0 1 1 0-4.999 2.5 2.5 0 0 1 0 5"/><path stroke="#4DB1CF" stroke-width="2" d="M18.413 27.432a2.5 2.5 0 1 1 0-4.999 2.5 2.5 0 0 1 0 5z"/><path fill="#FFF" d="M26 15a2.5 2.5 0 1 1-5 0 2.5 2.5 0 0 1 5 0"/><path stroke="#4DB1CF" stroke-width="2" d="M26 15a2.5 2.5 0 1 1-5 0 2.5 2.5 0 0 1 5 0z"/><path fill="#FFF" d="M23.5 51.5a2.5 2.5 0 1 1 .002-5.002A2.5 2.5 0 0 1 23.5 51.5"/><path stroke="#4DB1CF" stroke-width="2" d="M23.5 51.5a2.5 2.5 0 1 1 .002-5.002A2.5 2.5 0 0 1 23.5 51.5z"/></g></svg>