<svg height="64" viewBox="0 0 64 64" width="64" xmlns="http://www.w3.org/2000/svg"><linearGradient id="a" x1=".001%" x2="100.001%" y1="50%" y2="50%"><stop offset="0" stop-color="#e6edf2"/><stop offset="1" stop-color="#e6edf2" stop-opacity=".3"/></linearGradient><mask id="b" fill="#fff"><path d="M3.001 0A3.004 3.004 0 0 0 0 3v27.726l6.247-5.727H32c1.655 0 3-1.345 3-2.999V3c0-1.654-1.345-3-3-3z" fill="none"/></mask><g fill="none" fill-rule="evenodd"><path d="M0 64h64V0H0z"/><path d="M3.001 0A3.004 3.004 0 0 0 0 3v27.726l6.247-5.727H32c1.655 0 3-1.345 3-2.999V3c0-1.654-1.345-3-3-3z" fill="url(#a)" mask="url(#b)" transform="translate(9 9)"/><path d="M41 8H12a4 4 0 0 0-4 4v30l7.636-7H41a4 4 0 0 0 4-4V12a4 4 0 0 0-4-4m0 2c1.103 0 2 .897 2 2v19c0 1.103-.897 2-2 2H14.858l-.573.526L10 37.454V12c0-1.103.897-2 2-2z" fill="#4db1cf"/><path d="M48.753 48H23c-1.655 0-3-1.346-3-3V26c0-1.654 1.345-3 3-3h29c1.654 0 3 1.346 3 3v27.727z" fill="#fff"/><path d="M52 22H23a4 4 0 0 0-4 4v19a4 4 0 0 0 4 4h25.363L56 56V26a4 4 0 0 0-4-4m0 2c1.103 0 2 .897 2 2v25.454l-4.285-3.928-.573-.526H23c-1.103 0-2-.897-2-2V26c0-1.103.897-2 2-2z" fill="#4db1cf"/><path d="M35.029 34.139h10m-14.865 0h1m9 4.5h-10m14.865 0h-1" stroke="#cad8e0" stroke-linecap="round" stroke-width="2"/></g></svg>