<svg xmlns="http://www.w3.org/2000/svg" width="64" height="64" viewBox="0 0 64 64"><defs><linearGradient id="a" x1="23.895%" x2="83.507%" y1="19.142%" y2="87.397%"><stop offset="0%" stop-color="#E6EDF2"/><stop offset="100%" stop-color="#E6EDF2" stop-opacity=".3"/></linearGradient></defs><g fill="none" fill-rule="evenodd"><path d="M0 64h64V0H0z"/><path fill="url(#a)" d="M7.04 30.595C7.79 17.288 18.814 6.999 31.978 7c.473 0 .949.013 1.427.04.628.036 1.246.102 1.86.182.048.05.087.1.115.147.627 1.081-1.148 1.375-1.355 2.347-.207.971-1.795.755-2.588 2.235-.793 1.481-.138 1.77-.692 2.703-.554.934-1.064 1.429-1.064 1.429s.861.576.286 1.467c-.574.892-1.066 1.847-2.028 1.842-.962-.005-1.027-1.543-1.027-1.543l-.439 1.596s-.586-.312-.789-.92c-.2-.61-.769-.836-.769-.836s-1.325 1.89-1.194 2.835c.133.945.272 1.829-.43 2.056-.702.227-1.823.471-1.823.471s-1.117-.06-1.188.554c-.07.615-.019 1.618-.931 1.711-.644.067-.298 2.95.205 2.934.503-.013.92-.424 1.401-.648.48-.224.222-1.757.222-1.757s-.089-1.751.416-1.33c.505.422.756 1.058 1.277 1.087.52.03 1.308.689 1.159 1.268-.234.907-.022 1.579-1.029 1.952-1.006.372-2.785.97-2.817 1.739-.032.77-.07 1.375-.07 1.375l-2.073.829s-.19-.107-.367-.818c-.092-.372-.839-1.09-1.533-1.692-.675.84-1.178 1.42-1.095.893-1.007-.162-1.234-.849-2.012-.951-.78-.103-.63.766-.63.766s-1.228-.754-2.956-.18c-1.03.343-1.888.295-2.419.201.005-.129.005-.259.012-.389zm34.877-2.733l2.015-.388.813.415s1.585-.405 2.915.982 1.35 1.561 1.35 1.561c-1.194.922-1.008 2.158-.981 3.761a46.637 46.637 0 0 1-.083 3.295c1.087-.647 4.634 1.44 4.634 1.44.959.682 1.335 3.024 1.485 4.822-4.441 8.328-13.427 13.775-23.47 13.21a24.947 24.947 0 0 1-8.305-1.921c-.176-.799-.197-1.409-.197-1.409s-.763-.617.469-.617c1.233 0 2.212-.434 2.29-.969.076-.535.351-1.408.175-2.817-.175-1.408.8-1.723.8-1.723s.47-.442 1.188-1.151c.719-.71-.394-.71-.988-1.007-.595-.297-.119-1.753-.344-3.068-.155-.915-.534-1.427-.751-1.654.918.645 3.032-.473 3.032-.473s-.443-1.26-.675-2.247c-.231-.985-.344-2.415.408-2.681.752-.268-.371-1.245-.371-1.245s.958-.948 2.645-.835c1.685.112 2.132-.914 2.132-.914s1.842.519 2.64.277a1.752 1.752 0 0 0 1.075-.929c-1.005-.132-.793-.58-1.127-1.397-.185-.453.176-.418.642-.382.375.029.818.058 1.101-.167.633-.505 1.425.046 1.425.046l.297-1.021 1.374-.144c1.211.588 2.387-.65 2.387-.65zM24.932 40.624a1.29 1.29 0 0 0-.159-.145.838.838 0 0 0 .159.145zm19.25-30.123l.186-.226c6.876 3.921 11.659 10.989 12.497 19.137l-2.078-.389s-.631-.965-1.354-1.668c0 0-.361-.651-1.397-.432 0 0-.839.177-1.63-.617 0 0-.897-1.982-1.316-2.252-.418-.27-1.549-1.093-2.001-1.856-.454-.764-1.033-1.727-1.464-2.224-.432-.497-.072-1.428-.734-1.629-.661-.201-1.482-.625-1.388-2.132.096-1.509-.119-3.221.593-3.598.714-.379.086-2.114.086-2.114zM16.057 46.237l.282-1.157s.32.585.698.619c.378.032 1.436.483 1.436.483s.003-.424 1.255.047.831.772.671 1.745c-.277 1.687-2.378 2.742-2.378 2.742l-.806 1.439a24.915 24.915 0 0 1-2.784-2.38c-.064-1.928.912-1.53 1.712-2.441.835-.951-.086-1.097-.086-1.097zm19.32-21.478s.404-.712.704-.712c.06 0 .116.029.164.098.284.415 1.04.469.443 1.426 0 0-.065 1.249-.432 1.397-.369.146-.879-2.209-.879-2.209zm-.834-10.323c1.124-.34 1.602-.84 1.602-.84l.972.431.095 1.017c-.221.376-.789.023-1.901.72-1.114.696-1.533.976-1.876.316-.342-.66-.016-1.303 1.108-1.644zM17.456 36.348c.104-.085.364-.166.619-.166.248 0 .491.076.579.299.181.451.131 1.147.291 1.235.16.089.238.676.16.99-.076.314-.424 1.716-.883 1.744-.459.028-1.486-.139-1.7-.445a5.051 5.051 0 0 0-.447-.551l.737-.656s-1.043-.969-.893-1.192l.811-.343.528-.8s-.009.052.198-.115z"/><g fill="#4DB1CF"><path d="M32 7C18.193 7 7 18.193 7 32s11.193 25 25 25c13.808 0 25-11.193 25-25S45.808 7 32 7m0 2c12.683 0 23 10.318 23 23S44.683 55 32 55C19.318 55 9 44.682 9 32S19.318 9 32 9"/><path d="M52.004 32.999c-.271 0-.53-.1-.71-.29-.19-.19-.3-.45-.3-.71 0-.26.11-.52.3-.71.09-.09.2-.16.32-.21.25-.1.52-.1.77 0 .12.05.23.12.32.21.19.19.3.45.3.71 0 .26-.11.52-.3.71-.18.19-.44.29-.7.29m-4.71.001H36.706a1 1 0 1 1 0-2h10.588a1 1 0 1 1 0 2m-20-.001h-10.59c-.55 0-1-.45-1-1s.45-1 1-1h10.59c.55 0 1 .45 1 1s-.45 1-1 1m4.7 0c-.55 0-.99-.45-.99-1s.44-1 .99-1c.56 0 1.01.45 1.01 1s-.45 1-1.01 1m-19.99 0c-.271 0-.53-.11-.71-.29a.986.986 0 0 1-.29-.71c0-.06 0-.13.02-.19.01-.07.03-.13.05-.19.03-.06.06-.12.09-.17.04-.06.08-.11.13-.16.37-.37 1.04-.37 1.41 0 .19.19.29.44.29.71 0 .13-.02.26-.07.38-.05.13-.12.24-.22.33-.18.18-.44.29-.7.29m20-20c-.271 0-.53-.11-.71-.29a.986.986 0 0 1-.29-.71c0-.13.02-.26.07-.38s.13-.23.22-.33c.23-.23.58-.33.9-.27.06.01.13.03.19.06.06.02.12.05.17.09.06.04.11.08.15.12.1.1.17.21.22.33.05.12.08.25.08.38s-.03.26-.08.38c-.05.13-.12.23-.22.33-.04.04-.09.09-.15.12-.05.04-.11.07-.17.09-.06.03-.13.05-.19.06-.06.01-.13.02-.19.02M32 28.294a1 1 0 0 1-1-1V16.706a1 1 0 1 1 2 0v10.588a1 1 0 0 1-1 1"/><path d="M31.994 32.999c-.55 0-.99-.45-.99-1s.44-1 .99-1c.56 0 1.01.45 1.01 1s-.45 1-1.01 1m0 15.29c-.55 0-.99-.44-.99-1v-10.58c0-.55.44-1 .99-1 .56 0 1.01.45 1.01 1v10.58c0 .56-.45 1-1.01 1m.01 4.71a.99.99 0 0 1-1-1c0-.13.02-.26.07-.38s.13-.23.22-.33c.37-.37 1.04-.37 1.41 0 .1.1.17.21.22.33.05.12.08.25.08.38a1.017 1.017 0 0 1-.45.83c-.05.04-.11.07-.17.09-.06.03-.13.05-.19.06-.06.01-.13.02-.19.02"/></g></g></svg>